<?xml version="1.0" encoding="UTF-8"?>
<svg width="24px" height="24px" viewBox="0 0 24 24" version="1.1" xmlns="http://www.w3.org/2000/svg" xmlns:xlink="http://www.w3.org/1999/xlink">
    <title>Visibility Eye</title>
    <g id="Visibility-Eye" stroke="none" stroke-width="1" fill="none" fill-rule="evenodd">
        <path d="M12,4 C13.3123633,4 14.6247266,4.07670058 15.9370899,4.23010173 C18.5164582,4.53160537 20.7971016,6.00556158 22.0859961,8.20407951 L23.7296486,11.0077221 C24.0901171,11.6225875 24.0901171,12.3774125 23.7296486,12.9922779 L22.0859963,15.7959202 C20.7971028,17.9944409 18.5164574,19.4683982 15.9370867,19.7698986 C14.6247245,19.9232995 13.3123622,20 12,20 C10.6876367,20 9.37527342,19.9232994 8.06291014,19.7698983 C5.48354184,19.4683946 3.2028984,17.9944384 1.91400391,15.7959205 L0.270351403,12.9922779 C-0.0901171344,12.3774125 -0.0901171344,11.6225875 0.270351403,11.0077221 L1.91400372,8.20407983 C3.20289725,6.00555908 5.48354258,4.5316018 8.06291332,4.23010135 C9.37527555,4.07670045 10.6876378,4 12,4 Z M12,6 L11.5790816,6.00765306 C9.78826531,6.07397959 8.42857143,6.57142857 7.5,7.5 C6.55882353,8.44117647 6.06055363,9.82525952 6.00519031,11.6522491 L6,12 L6.00765306,12.4209184 C6.07397959,14.2117347 6.57142857,15.5714286 7.5,16.5 C8.44117647,17.4411765 9.82525952,17.9394464 11.6522491,17.9948097 L12,18 L12.4209184,17.9923469 C14.2117347,17.9260204 15.5714286,17.4285714 16.5,16.5 C17.4411765,15.5588235 17.9394464,14.1747405 17.9948097,12.3477509 L18,12 L17.9923469,11.5790816 C17.9260204,9.78826531 17.4285714,8.42857143 16.5,7.5 C15.5588235,6.55882353 14.1747405,6.06055363 12.3477509,6.00519031 L12,6 Z M12,9 C13,9 13.75,9.25 14.25,9.75 C14.7142857,10.2142857 14.9630102,10.8941327 14.9961735,11.7895408 L15,12 C15,13 14.75,13.75 14.25,14.25 C13.7857143,14.7142857 13.1058673,14.9630102 12.2104592,14.9961735 L12,15 C11,15 10.25,14.75 9.75,14.25 C9.28571429,13.7857143 9.0369898,13.1058673 9.00382653,12.2104592 L9,12 C9,11 9.25,10.25 9.75,9.75 C10.2142857,9.28571429 10.8941327,9.0369898 11.7895408,9.00382653 L12,9 Z" id="Shape" fill="#431880"></path>
    </g>
</svg>