<?xml version="1.0" encoding="UTF-8"?>
<svg width="24px" height="24px" viewBox="0 0 24 24" version="1.1" xmlns="http://www.w3.org/2000/svg" xmlns:xlink="http://www.w3.org/1999/xlink">
    <title>Currency Dollar</title>
    <g id="Currency-Dollar" stroke="none" stroke-width="1" fill="none" fill-rule="evenodd">
        <path d="M12,-7.10542736e-15 C16,-7.10542736e-15 19,1 21,3 C22.9259259,4.92592593 23.9245542,7.77914952 23.9958848,11.5596708 L24,12 C24,16 23,19 21,21 C19.0740741,22.9259259 16.2208505,23.9245542 12.4403292,23.9958848 L12,24 C8,24 5,23 3,21 C1.07407407,19.0740741 0.0754458162,16.2208505 0.00411522634,12.4403292 L0,12 C0,8 1,5 3,3 C4.92592593,1.07407407 7.77914952,0.0754458162 11.5596708,0.00411522634 L12,-7.10542736e-15 Z M12.688,4 L11.572,4 C11.452,4 11.35,4.039 11.266,4.117 C11.203,4.1755 11.163625,4.2491875 11.147875,4.3380625 L11.14,4.432 L11.14,5.674 C9.964,5.818 9.037,6.214 8.359,6.862 C7.681,7.51 7.342,8.302 7.342,9.238 C7.342,10.27 7.672,11.062 8.332,11.614 C8.992,12.166 10.03,12.61 11.446,12.946 C12.298,13.174 12.943,13.369 13.381,13.531 C13.819,13.693 14.146,13.882 14.362,14.098 C14.578,14.314 14.686,14.584 14.686,14.908 C14.686,15.4 14.473,15.787 14.047,16.069 C13.621,16.351 12.994,16.492 12.166,16.492 C11.422,16.492 10.837,16.354 10.411,16.078 C9.985,15.802 9.706,15.46 9.574,15.052 C9.502,14.932 9.427,14.845 9.349,14.791 C9.2905,14.7505 9.2134375,14.7251875 9.1178125,14.7150625 L9.016,14.71 L7.396,14.71 C7.288,14.71 7.195,14.749 7.117,14.827 C7.039,14.905 7,14.992 7,15.088 C7.024,15.64 7.195,16.159 7.513,16.645 C7.831,17.131 8.299,17.542 8.917,17.878 C9.45775,18.172 10.0926719,18.3695313 10.8217656,18.4705938 L11.14,18.508 L11.14,19.768 C11.14,19.9 11.182,20.005 11.266,20.083 C11.329,20.1415 11.402125,20.1780625 11.485375,20.1926875 L11.572,20.2 L12.688,20.2 C12.82,20.2 12.925,20.161 13.003,20.083 C13.0615,20.0245 13.0980625,19.9508125 13.1126875,19.8619375 L13.12,19.768 L13.12,18.508 C14.392,18.376 15.403,17.986 16.153,17.338 C16.903,16.69 17.278,15.844 17.278,14.8 C17.278,14.092 17.128,13.51 16.828,13.054 C16.528,12.598 16.063,12.22 15.433,11.92 C14.803,11.62 13.954,11.35 12.886,11.11 C12.118,10.918 11.527,10.738 11.113,10.57 C10.699,10.402 10.399,10.21 10.213,9.994 C10.027,9.778 9.934,9.508 9.934,9.184 C9.934,8.704 10.123,8.338 10.501,8.086 C10.879,7.834 11.398,7.708 12.058,7.708 C12.658,7.708 13.159,7.837 13.561,8.095 C13.963,8.353 14.2,8.674 14.272,9.058 C14.3542857,9.24314286 14.4938776,9.34893878 14.6907755,9.37538776 L14.794,9.382 L16.504,9.382 C16.612,9.382 16.702,9.346 16.774,9.274 C16.846,9.202 16.882,9.112 16.882,9.004 C16.858,8.56 16.699,8.104 16.405,7.636 C16.111,7.168 15.685,6.757 15.127,6.403 C14.63875,6.09325 14.0655156,5.87767188 13.4072969,5.75626563 L13.12,5.71 L13.12,4.432 C13.12,4.3 13.081,4.195 13.003,4.117 C12.9445,4.0585 12.8708125,4.0219375 12.7819375,4.0073125 L12.688,4 Z" id="Combined-Shape" fill="#431880"></path>
    </g>
</svg>