<?xml version="1.0" encoding="UTF-8"?>
<svg width="24px" height="24px" viewBox="0 0 24 24" version="1.1" xmlns="http://www.w3.org/2000/svg" xmlns:xlink="http://www.w3.org/1999/xlink">
    <title>Fullscreen Toggle</title>
    <g id="Fullscreen-Toggle" stroke="none" stroke-width="1" fill="none" fill-rule="evenodd">
        <path d="M15.9064242,19.2662002 L15.9225544,19.4000471 C15.9625745,20.001185 15.6198376,20.4808576 15.0640459,20.6015367 C13.4586707,20.9501599 11.8380659,21.0700203 10.2022315,20.9611177 C8.5818392,20.8532432 6.94650346,20.5209044 5.29622428,19.9641013 C5.04731611,19.8801101 4.90925811,19.7926473 4.67651534,19.5709946 L4.551302,19.4483806 C4.23628606,19.1333647 4.13400255,18.9945066 4.03589872,18.7037757 C3.47909563,17.0534965 3.14675682,15.4181608 3.03888229,13.7977685 C2.92997973,12.1619341 3.04984007,10.5413293 3.39846332,8.93595411 C3.50985941,8.42291559 3.92714346,8.09141493 4.46349304,8.07492742 L4.59995286,8.07744555 L4.73379982,8.09357583 C5.26660905,8.18633905 5.76087338,8.61192799 5.94293583,9.15147049 C6.49973893,10.8017497 6.83207774,12.4370854 6.93995226,14.0574777 L6.97697526,14.674683 C7.02291303,15.3778322 7.10546952,15.9060219 7.59972383,16.4002762 C8.22877477,17.0293271 8.91279531,16.9914956 9.9425223,17.0600477 C11.5629146,17.1679223 13.1982503,17.5002611 14.8485295,18.0570642 C15.388072,18.2391266 15.813661,18.733391 15.9064242,19.2662002 Z M19.3232026,4.42871158 L19.4483806,4.551302 C19.7633965,4.86631795 19.8661115,5.00583141 19.9641013,5.29622428 C20.5209044,6.94650346 20.8532432,8.5818392 20.9611177,10.2022315 C21.0700203,11.8380659 20.9501599,13.4586707 20.6015367,15.0640459 C20.4901406,15.5770844 20.0728565,15.9085851 19.536507,15.9250726 L19.4000471,15.9225544 L19.2662002,15.9064242 C18.733391,15.813661 18.2391266,15.388072 18.0570642,14.8485295 C17.5002611,13.1982503 17.1679223,11.5629146 17.0600477,9.9425223 L17.0230247,9.32531702 C16.977087,8.62216776 16.8945305,8.09397814 16.4002762,7.59972383 C15.7712252,6.97067289 15.0872047,7.00850437 14.0574777,6.93995226 C12.4370854,6.83207774 10.8017497,6.49973893 9.15147049,5.94293583 C8.66097731,5.77742451 8.26466062,5.35389511 8.12696232,4.87795017 L8.09357583,4.73379982 L8.07744555,4.59995286 L8.07492742,4.46349304 C8.09141493,3.92714346 8.42291559,3.50985941 8.93595411,3.39846332 C10.5413293,3.04984007 12.1619341,2.92997973 13.7977685,3.03888229 C15.4181608,3.14675682 17.0534965,3.47909563 18.7037757,4.03589872 C18.9529737,4.11998772 19.0905915,4.2071475 19.3232026,4.42871158 L19.3232026,4.42871158 Z" id="Shape" fill="#431880"></path>
    </g>
</svg>