<?xml version="1.0" encoding="UTF-8"?>
<svg width="24px" height="24px" viewBox="0 0 24 24" version="1.1" xmlns="http://www.w3.org/2000/svg" xmlns:xlink="http://www.w3.org/1999/xlink">
    <title>Folder Downloads</title>
    <g id="Folder-Downloads" stroke="none" stroke-width="1" fill="none" fill-rule="evenodd">
        <path d="M8.17157288,3 C8.70200585,3 9.21071368,3.21071368 9.58578644,3.58578644 L11.4142136,5.41421356 C11.7892863,5.78928632 12.2979941,6 12.8284271,6 L19.8093323,6 C20.7768558,6.00002091 21.6056432,6.69260375 21.7775058,7.64474081 C21.9258353,8.46650165 22,9.58492138 22,11 C22,13.2754159 21.8082401,15.5508318 21.4247203,17.8262478 L21.2719063,18.6795277 C21.1187726,19.4871183 20.4871112,20.1187796 19.6795206,20.2719131 C17.1196804,20.7573044 14.5598402,21 12,21 C9.72458408,21 7.44916815,20.8082401 5.17375223,20.4247203 L4.32047227,20.2719063 C3.51288165,20.1187726 2.88122042,19.4871112 2.72808686,18.6795206 C2.24269562,16.1196804 2,13.5598402 2,11 C2,8.66051434 2.20271086,6.52373954 2.60813257,4.58967559 C2.80230285,3.66338279 3.61916329,3 4.56558839,3 L8.17157288,3 Z M12.0000445,9 L11.9044836,9.00756468 C11.6549378,9.04743112 11.452238,9.24102109 11.4062765,9.49645925 C11.1361219,10.9976395 11.0010446,12.4988197 11.0010446,14 C11.0010446,14.6080646 11.023207,15.2161292 11.0675317,15.8241937 L11.0675317,15.8241937 L10.9922727,15.7375934 C10.4122381,15.1042818 9.75185925,14.5586941 9.01113604,14.1008304 C8.77789799,13.9566682 8.48283999,13.9779793 8.27382546,14.1442604 L8.27382546,14.1442604 L8.1997671,14.2133713 L8.12703582,14.3062815 C7.97604861,14.5334677 7.95682002,14.8279935 8.08457666,15.0758293 C8.50640336,15.8941018 9.01013237,16.6229493 9.59576366,17.2623717 C10.1757982,17.8956833 10.8361771,18.441271 11.5769003,18.8991347 C11.6748421,18.9596716 11.7836848,18.9910298 11.8922195,18.9947845 L11.8922195,18.9947845 L11.915,18.993 L12.0000445,19 L12.1716072,18.9893401 C12.2587197,18.9775929 12.3444747,18.9477871 12.4231887,18.8991347 C13.163912,18.441271 13.8242908,17.8956833 14.4043254,17.2623717 C14.9899567,16.6229493 15.4936857,15.8941018 15.9155124,15.0758293 C16.06152,14.7925884 16.0155469,14.4483646 15.8003219,14.2133713 L15.8003219,14.2133713 L15.7262636,14.1442604 C15.517249,13.9779793 15.2221911,13.9566682 14.988953,14.1008304 C14.2482298,14.5586941 13.5878509,15.1042818 13.0078164,15.7375934 L13.0078164,15.7375934 L12.9325573,15.8241937 C12.9768821,15.2161292 12.9990444,14.6080646 12.9990444,14 C12.9990444,12.4988197 12.8639671,10.9976395 12.5938125,9.49645925 C12.5421058,9.20909132 12.2920272,9 12.0000445,9 L12.0000445,9 Z" id="Combined-Shape" fill="#431880"></path>
    </g>
</svg>