<?xml version="1.0" encoding="UTF-8"?>
<svg width="24px" height="24px" viewBox="0 0 24 24" version="1.1" xmlns="http://www.w3.org/2000/svg" xmlns:xlink="http://www.w3.org/1999/xlink">
    <title>Emoji Fear</title>
    <g id="Emoji-Fear" stroke="none" stroke-width="1" fill="none" fill-rule="evenodd">
        <path d="M12,0 C16,0 19,1 21,3 C22.9259259,4.92592593 23.9245542,7.77914952 23.9958848,11.5596708 L24,12 C24,16 23,19 21,21 C19.0740741,22.9259259 16.2208505,23.9245542 12.4403292,23.9958848 L12,24 C8,24 5,23 3,21 C1.07407407,19.0740741 0.0754458162,16.2208505 0.00411522634,12.4403292 L0,12 C0,8 1,5 3,3 C4.92592593,1.07407407 7.77914952,0.0754458162 11.5596708,0.00411522634 L12,0 Z M11.999147,13.0314169 C9.3705598,13.0314169 7.33814765,13.5922895 5.9264916,14.7609883 C5.00657341,15.5225813 4.37143554,16.5403957 4.03549926,17.7673367 C3.88965182,18.3000157 4.20324079,18.8500701 4.73591984,18.9959176 C4.99657711,19.0672855 8.57749108,18.0301494 12,18.0316684 C15.5717283,18.0332535 18.9909379,19.0703879 19.2630399,18.9962018 C19.7958759,18.8509289 20.1100579,18.301213 19.964785,17.768377 C19.6300026,16.5404528 18.995086,15.5253676 18.0718023,14.7609883 C16.7824183,13.6935175 14.9747625,13.1332084 12.6627878,13.044014 L12.2727914,13.0335042 L11.999147,13.0314169 Z M8,6 L7.9266118,6.00068587 C7.29652492,6.0125743 6.82098765,6.17901235 6.5,6.5 C6.16666667,6.83333333 6,7.33333333 6,8 L6,8 L6.00068587,8.0733882 C6.0125743,8.70347508 6.17901235,9.17901235 6.5,9.5 C6.83333333,9.83333333 7.33333333,10 8,10 L8,10 L8.0733882,9.99931413 C8.70347508,9.9874257 9.17901235,9.82098765 9.5,9.5 C9.83333333,9.16666667 10,8.66666667 10,8 L10,8 L9.99931413,7.9266118 C9.9874257,7.29652492 9.82098765,6.82098765 9.5,6.5 C9.16666667,6.16666667 8.66666667,6 8,6 L8,6 Z M16,6 L15.9266118,6.00068587 C15.2965249,6.0125743 14.8209877,6.17901235 14.5,6.5 C14.1666667,6.83333333 14,7.33333333 14,8 L14,8 L14.0006859,8.0733882 C14.0125743,8.70347508 14.1790123,9.17901235 14.5,9.5 C14.8333333,9.83333333 15.3333333,10 16,10 L16,10 L16.0733882,9.99931413 C16.7034751,9.9874257 17.1790123,9.82098765 17.5,9.5 C17.8333333,9.16666667 18,8.66666667 18,8 L18,8 L17.9993141,7.9266118 C17.9874257,7.29652492 17.8209877,6.82098765 17.5,6.5 C17.1666667,6.16666667 16.6666667,6 16,6 L16,6 Z" id="Combined-Shape" fill="#431880"></path>
    </g>
</svg>