<?xml version="1.0" encoding="UTF-8"?>
<svg width="24px" height="24px" viewBox="0 0 24 24" version="1.1" xmlns="http://www.w3.org/2000/svg" xmlns:xlink="http://www.w3.org/1999/xlink">
    <title>Magnifying Glass Search</title>
    <g id="Magnifying-Glass-Search" stroke="none" stroke-width="1" fill="none" fill-rule="evenodd">
        <path d="M9,2 C11.3333333,2 13.0833333,2.58333333 14.25,3.75 C15.3734568,4.87345679 15.9559899,6.53783722 15.9975995,8.74314129 L16,9 C16,9.67473422 15.8695877,10.5279979 15.6087631,11.5597911 L15.6087834,11.5597962 C15.4119106,12.338603 15.7001141,13.1596257 16.3405776,13.6445025 C17.3083283,14.3771591 18.0362551,14.987539 18.5243581,15.4756419 C19.7973046,16.7485884 20.8930844,18.1987015 21.8116975,19.8259813 C22.1086582,20.352037 22.0483554,21.0012647 21.6733558,21.4619982 L21.5730743,21.5730743 C21.1103247,22.0358239 20.395875,22.133405 19.8259813,21.8116975 C18.1987015,20.8930844 16.7485884,19.7973046 15.4756419,18.5243581 C14.9928253,18.0415415 14.3947936,17.3219739 13.6815466,16.3656553 L13.6815274,16.3656696 C13.1935544,15.7113974 12.3569616,15.4192978 11.5677989,15.6276533 C10.6803435,15.8619601 9.91003012,15.9852755 9.25685871,15.9975995 L9,16 C6.66666667,16 4.91666667,15.4166667 3.75,14.25 C2.62654321,13.1265432 2.04401006,11.4621628 2.00240055,9.25685871 L2,9 C2,6.66666667 2.58333333,4.91666667 3.75,3.75 C4.87345679,2.62654321 6.53783722,2.04401006 8.74314129,2.00240055 L9,2 Z M9.008,3.999 L8.78087042,4.00204465 C7.05501388,4.03460798 5.88394506,4.44448206 5.16421356,5.16421356 C4.45821065,5.87021648 4.04987871,7.01215311 4.00420977,8.66532923 L3.99991266,8.98130923 L4.00204465,9.21912958 C4.03460798,10.9449861 4.44448206,12.1160549 5.16421356,12.8357864 C5.87021648,13.5417894 7.01215311,13.9501213 8.66532923,13.9957902 L8.98130923,14.0000873 L9.21912958,13.9979554 C10.9449861,13.965392 12.1160549,13.5555179 12.8357864,12.8357864 C13.5417894,12.1297835 13.9501213,10.9878469 13.9957902,9.33467077 L14.0000873,9.01869077 L13.9979554,8.78087042 C13.965392,7.05501388 13.5555179,5.88394506 12.8357864,5.16421356 C12.1297835,4.45821065 10.9878469,4.04987871 9.31908815,4.00428258 L9.008,3.999 Z" id="Shape" fill="#431880"></path>
    </g>
</svg>