<?xml version="1.0" encoding="UTF-8"?>
<svg width="634px" height="164px" viewBox="0 0 634 164" version="1.1" xmlns="http://www.w3.org/2000/svg" xmlns:xlink="http://www.w3.org/1999/xlink">
    <title>logo-squircular</title>
    <defs>
        <path d="M217.234,110.94 C224.879333,110.94 230.942333,109.295 235.423,106.005 C239.903667,102.715 242.144,98.1246667 242.144,92.234 C242.144,88.7246667 241.392,85.8576667 239.888,83.633 C238.384,81.4083333 236.112333,79.544 233.073,78.04 C230.033667,76.536 225.850667,75.032 220.524,73.528 C215.886667,72.1493333 212.361667,70.9273333 209.949,69.862 C207.536333,68.7966667 205.750333,67.5746667 204.591,66.196 C203.431667,64.8173333 202.852,63.0313333 202.852,60.838 C202.852,57.5793333 204.105333,55.1196667 206.612,53.459 C209.118667,51.7983333 212.502667,50.968 216.764,50.968 C220.712,50.968 224.002,51.8453333 226.634,53.6 C229.266,55.3546667 230.77,57.5793333 231.146,60.274 C231.334,60.9006667 231.647333,61.3706667 232.086,61.684 C232.524667,61.9973333 232.994667,62.154 233.496,62.154 L233.496,62.154 L238.196,62.154 C238.76,62.154 239.23,61.966 239.606,61.59 C239.982,61.214 240.17,60.744 240.17,60.18 C240.044667,57.548 239.073333,54.9316667 237.256,52.331 C235.438667,49.7303333 232.791,47.5683333 229.313,45.845 C225.835,44.1216667 221.652,43.26 216.764,43.26 C212.064,43.26 207.990667,44.0276667 204.544,45.563 C201.097333,47.0983333 198.465333,49.1976667 196.648,51.861 C194.830667,54.5243333 193.922,57.548 193.922,60.932 C193.922,64.4413333 194.642667,67.3396667 196.084,69.627 C197.525333,71.9143333 199.671667,73.8413333 202.523,75.408 C205.374333,76.9746667 209.212667,78.4473333 214.038,79.826 C219.114,81.33 222.921,82.599 225.459,83.633 C227.997,84.667 229.908333,85.8733333 231.193,87.252 C232.477667,88.6306667 233.12,90.3853333 233.12,92.516 C233.12,95.8373333 231.804,98.438 229.172,100.318 C226.54,102.198 222.560667,103.138 217.234,103.138 C212.283333,103.138 208.476333,102.182333 205.813,100.271 C203.149667,98.3596667 201.536,96.088 200.972,93.456 C200.533333,92.2026667 199.75,91.576 198.622,91.576 L198.622,91.576 L194.016,91.576 C193.452,91.576 192.982,91.764 192.606,92.14 C192.23,92.516 192.042,92.9546667 192.042,93.456 C192.167333,96.5266667 193.217,99.3936667 195.191,102.057 C197.165,104.720333 200.047667,106.866667 203.839,108.496 C207.630333,110.125333 212.095333,110.94 217.234,110.94 Z M292.904,127.86 C293.530667,127.86 294.047667,127.656333 294.455,127.249 C294.862333,126.841667 295.066,126.324667 295.066,125.698 L295.066,125.698 L295.066,63.282 C295.066,62.6553333 294.862333,62.1383333 294.455,61.731 C294.047667,61.3236667 293.530667,61.12 292.904,61.12 L292.904,61.12 L288.862,61.12 C288.235333,61.12 287.718333,61.3236667 287.311,61.731 C286.903667,62.1383333 286.7,62.6553333 286.7,63.282 L286.7,63.282 L286.7,67.418 C283.190667,62.5926667 278.052,60.18 271.284,60.18 C264.704,60.18 259.769,62.2636667 256.479,66.431 C253.189,70.5983333 251.418667,75.9093333 251.168,82.364 L251.168,82.364 L251.074,85.56 L251.168,88.756 C251.356,95.148 253.110667,100.443333 256.432,104.642 C259.753333,108.840667 264.704,110.94 271.284,110.94 C277.864,110.94 282.94,108.558667 286.512,103.796 L286.512,103.796 L286.512,125.698 C286.512,126.387333 286.715667,126.92 287.123,127.296 C287.530333,127.672 288.047333,127.86 288.674,127.86 L288.674,127.86 L292.904,127.86 Z M273.07,103.608 C264.171333,103.608 259.722,97.592 259.722,85.56 L259.722,85.56 L259.816,82.834 C260.004,78.2593333 261.132,74.562 263.2,71.742 C265.268,68.922 268.558,67.512 273.07,67.512 C277.456667,67.512 280.746667,68.9533333 282.94,71.836 C285.133333,74.7186667 286.324,78.1653333 286.512,82.176 C286.574667,82.8653333 286.606,84.0873333 286.606,85.842 C286.606,87.5966667 286.574667,88.8186667 286.512,89.508 C286.386667,93.3306667 285.180333,96.6363333 282.893,99.425 C280.605667,102.213667 277.331333,103.608 273.07,103.608 Z M327.402,110.94 C331.162,110.94 334.264,110.329 336.708,109.107 C339.152,107.885 341.282667,106.052 343.1,103.608 L343.1,103.608 L343.1,107.838 C343.1,108.464667 343.303667,108.981667 343.711,109.389 C344.118333,109.796333 344.635333,110 345.262,110 L345.262,110 L349.304,110 C349.930667,110 350.447667,109.796333 350.855,109.389 C351.262333,108.981667 351.466,108.464667 351.466,107.838 L351.466,107.838 L351.466,63.282 C351.466,62.6553333 351.262333,62.1383333 350.855,61.731 C350.447667,61.3236667 349.930667,61.12 349.304,61.12 L349.304,61.12 L344.98,61.12 C344.353333,61.12 343.836333,61.3236667 343.429,61.731 C343.021667,62.1383333 342.818,62.6553333 342.818,63.282 L342.818,63.282 L342.818,89.32 C342.818,93.7693333 341.643,97.263 339.293,99.801 C336.943,102.339 333.762667,103.608 329.752,103.608 C321.48,103.608 317.344,98.8453333 317.344,89.32 L317.344,89.32 L317.344,63.282 C317.344,62.6553333 317.140333,62.1383333 316.733,61.731 C316.325667,61.3236667 315.808667,61.12 315.182,61.12 L315.182,61.12 L310.858,61.12 C310.231333,61.12 309.714333,61.3236667 309.307,61.731 C308.899667,62.1383333 308.696,62.6553333 308.696,63.282 L308.696,63.282 L308.696,89.79 C308.696,96.182 310.325333,101.305 313.584,105.159 C316.842667,109.013 321.448667,110.94 327.402,110.94 Z M372.522,51.908 C373.148667,51.908 373.681333,51.7043333 374.12,51.297 C374.558667,50.8896667 374.778,50.3726667 374.778,49.746 L374.778,49.746 L374.778,44.858 C374.778,44.2313333 374.558667,43.6986667 374.12,43.26 C373.681333,42.8213333 373.148667,42.602 372.522,42.602 L372.522,42.602 L366.976,42.602 C366.349333,42.602 365.832333,42.8213333 365.425,43.26 C365.017667,43.6986667 364.814,44.2313333 364.814,44.858 L364.814,44.858 L364.814,49.746 C364.814,50.3726667 365.017667,50.8896667 365.425,51.297 C365.832333,51.7043333 366.349333,51.908 366.976,51.908 L366.976,51.908 L372.522,51.908 Z M371.864,110 C372.490667,110 373.007667,109.796333 373.415,109.389 C373.822333,108.981667 374.026,108.464667 374.026,107.838 L374.026,107.838 L374.026,63.282 C374.026,62.6553333 373.822333,62.1383333 373.415,61.731 C373.007667,61.3236667 372.490667,61.12 371.864,61.12 L371.864,61.12 L367.728,61.12 C367.101333,61.12 366.584333,61.3236667 366.177,61.731 C365.769667,62.1383333 365.566,62.6553333 365.566,63.282 L365.566,63.282 L365.566,107.838 C365.566,108.464667 365.769667,108.981667 366.177,109.389 C366.584333,109.796333 367.101333,110 367.728,110 L367.728,110 L371.864,110 Z M394.518,110 C395.144667,110 395.677333,109.796333 396.116,109.389 C396.554667,108.981667 396.774,108.464667 396.774,107.838 L396.774,107.838 L396.774,80.108 C396.774,76.6613333 397.761,73.9353333 399.735,71.93 C401.709,69.9246667 404.419333,68.922 407.866,68.922 L407.866,68.922 L413.224,68.922 C413.913333,68.922 414.446,68.7183333 414.822,68.311 C415.198,67.9036667 415.386,67.3866667 415.386,66.76 L415.386,66.76 L415.386,63.282 C415.386,62.5926667 415.198,62.06 414.822,61.684 C414.446,61.308 413.913333,61.12 413.224,61.12 L413.224,61.12 L409.558,61.12 C403.416667,61.12 399.061333,63.2506667 396.492,67.512 L396.492,67.512 L396.492,63.376 C396.492,62.6866667 396.288333,62.1383333 395.881,61.731 C395.473667,61.3236667 394.925333,61.12 394.236,61.12 L394.236,61.12 L390.288,61.12 C389.661333,61.12 389.144333,61.3393333 388.737,61.778 C388.329667,62.2166667 388.126,62.7493333 388.126,63.376 L388.126,63.376 L388.126,107.838 C388.126,108.464667 388.329667,108.981667 388.737,109.389 C389.144333,109.796333 389.661333,110 390.288,110 L390.288,110 L394.518,110 Z M442.082,110.94 C446.594,110.94 450.401,110.125333 453.503,108.496 C456.605,106.866667 458.923667,104.861333 460.459,102.48 C461.994333,100.098667 462.824667,97.7486667 462.95,95.43 C463.012667,94.866 462.809,94.3646667 462.339,93.926 C461.869,93.4873333 461.352,93.268 460.788,93.268 L460.788,93.268 L456.652,93.268 C456.025333,93.268 455.555333,93.409 455.242,93.691 C454.928667,93.973 454.615333,94.49 454.302,95.242 C453.174,98.3126667 451.638667,100.490333 449.696,101.775 C447.753333,103.059667 445.246667,103.702 442.176,103.702 C438.228,103.702 435.094667,102.48 432.776,100.036 C430.457333,97.592 429.204,93.8633333 429.016,88.85 L429.016,88.85 L428.922,85.56 L429.016,82.27 C429.204,77.2566667 430.457333,73.528 432.776,71.084 C435.094667,68.64 438.228,67.418 442.176,67.418 C445.184,67.418 447.675,68.0603333 449.649,69.345 C451.623,70.6296667 453.174,72.8073333 454.302,75.878 C454.615333,76.63 454.928667,77.147 455.242,77.429 C455.555333,77.711 456.025333,77.852 456.652,77.852 L456.652,77.852 L460.788,77.852 C461.352,77.852 461.869,77.6326667 462.339,77.194 C462.809,76.7553333 463.012667,76.254 462.95,75.69 C462.824667,73.3086667 461.994333,70.9273333 460.459,68.546 C458.923667,66.1646667 456.605,64.175 453.503,62.577 C450.401,60.979 446.594,60.18 442.082,60.18 C435.376667,60.18 430.144,62.0756667 426.384,65.867 C422.624,69.6583333 420.65,74.9693333 420.462,81.8 L420.462,81.8 L420.368,85.56 L420.462,89.32 C420.65,96.1506667 422.624,101.461667 426.384,105.253 C430.144,109.044333 435.376667,110.94 442.082,110.94 Z M492.466,110.94 C496.226,110.94 499.328,110.329 501.772,109.107 C504.216,107.885 506.346667,106.052 508.164,103.608 L508.164,103.608 L508.164,107.838 C508.164,108.464667 508.367667,108.981667 508.775,109.389 C509.182333,109.796333 509.699333,110 510.326,110 L510.326,110 L514.368,110 C514.994667,110 515.511667,109.796333 515.919,109.389 C516.326333,108.981667 516.53,108.464667 516.53,107.838 L516.53,107.838 L516.53,63.282 C516.53,62.6553333 516.326333,62.1383333 515.919,61.731 C515.511667,61.3236667 514.994667,61.12 514.368,61.12 L514.368,61.12 L510.044,61.12 C509.417333,61.12 508.900333,61.3236667 508.493,61.731 C508.085667,62.1383333 507.882,62.6553333 507.882,63.282 L507.882,63.282 L507.882,89.32 C507.882,93.7693333 506.707,97.263 504.357,99.801 C502.007,102.339 498.826667,103.608 494.816,103.608 C486.544,103.608 482.408,98.8453333 482.408,89.32 L482.408,89.32 L482.408,63.282 C482.408,62.6553333 482.204333,62.1383333 481.797,61.731 C481.389667,61.3236667 480.872667,61.12 480.246,61.12 L480.246,61.12 L475.922,61.12 C475.295333,61.12 474.778333,61.3236667 474.371,61.731 C473.963667,62.1383333 473.76,62.6553333 473.76,63.282 L473.76,63.282 L473.76,89.79 C473.76,96.182 475.389333,101.305 478.648,105.159 C481.906667,109.013 486.512667,110.94 492.466,110.94 Z M537.022,110 C537.648667,110 538.165667,109.796333 538.573,109.389 C538.980333,108.981667 539.184,108.464667 539.184,107.838 L539.184,107.838 L539.184,45.422 C539.184,44.7953333 538.980333,44.2783333 538.573,43.871 C538.165667,43.4636667 537.648667,43.26 537.022,43.26 L537.022,43.26 L532.886,43.26 C532.259333,43.26 531.742333,43.448 531.335,43.824 C530.927667,44.2 530.724,44.7326667 530.724,45.422 L530.724,45.422 L530.724,107.838 C530.724,108.464667 530.927667,108.981667 531.335,109.389 C531.742333,109.796333 532.259333,110 532.886,110 L532.886,110 L537.022,110 Z M566.82,110.94 C570.956,110.94 574.34,110.250667 576.972,108.872 C579.604,107.493333 581.609333,105.77 582.988,103.702 L582.988,103.702 L582.988,107.838 C582.988,108.464667 583.176,108.981667 583.552,109.389 C583.928,109.796333 584.429333,110 585.056,110 L585.056,110 L589.192,110 C589.818667,110 590.335667,109.796333 590.743,109.389 C591.150333,108.981667 591.354,108.464667 591.354,107.838 L591.354,107.838 L591.354,77.288 C591.354,72.4 589.834333,68.3266667 586.795,65.068 C583.755667,61.8093333 578.726667,60.18 571.708,60.18 C567.634667,60.18 564.188,60.885 561.368,62.295 C558.548,63.705 556.464333,65.3656667 555.117,67.277 C553.769667,69.1883333 553.096,70.8646667 553.096,72.306 C553.096,72.87 553.299667,73.3556667 553.707,73.763 C554.114333,74.1703333 554.6,74.374 555.164,74.374 L555.164,74.374 L558.83,74.374 C559.331333,74.374 559.723,74.2643333 560.005,74.045 C560.287,73.8256667 560.553333,73.4026667 560.804,72.776 C561.618667,71.2093333 562.903333,69.8463333 564.658,68.687 C566.412667,67.5276667 568.731333,66.948 571.614,66.948 C579.071333,66.948 582.8,70.1753333 582.8,76.63 L582.8,76.63 L582.8,79.356 L568.7,81.33 C562.872,82.2073333 558.266,83.962 554.882,86.594 C551.498,89.226 549.806,92.61 549.806,96.746 C549.806,99.378 550.573667,101.775 552.109,103.937 C553.644333,106.099 555.712333,107.806667 558.313,109.06 C560.913667,110.313333 563.749333,110.94 566.82,110.94 Z M568.7,104.078 C565.817333,104.078 563.326333,103.388667 561.227,102.01 C559.127667,100.631333 558.078,98.6573333 558.078,96.088 C558.078,93.832 559.237333,91.952 561.556,90.448 C563.874667,88.944 567.29,87.8786667 571.802,87.252 L571.802,87.252 L582.8,85.654 L582.8,88.286 C582.8,93.4246667 581.484,97.3413333 578.852,100.036 C576.22,102.730667 572.836,104.078 568.7,104.078 Z M611.376,110 C612.002667,110 612.535333,109.796333 612.974,109.389 C613.412667,108.981667 613.632,108.464667 613.632,107.838 L613.632,107.838 L613.632,80.108 C613.632,76.6613333 614.619,73.9353333 616.593,71.93 C618.567,69.9246667 621.277333,68.922 624.724,68.922 L624.724,68.922 L630.082,68.922 C630.771333,68.922 631.304,68.7183333 631.68,68.311 C632.056,67.9036667 632.244,67.3866667 632.244,66.76 L632.244,66.76 L632.244,63.282 C632.244,62.5926667 632.056,62.06 631.68,61.684 C631.304,61.308 630.771333,61.12 630.082,61.12 L630.082,61.12 L626.416,61.12 C620.274667,61.12 615.919333,63.2506667 613.35,67.512 L613.35,67.512 L613.35,63.376 C613.35,62.6866667 613.146333,62.1383333 612.739,61.731 C612.331667,61.3236667 611.783333,61.12 611.094,61.12 L611.094,61.12 L607.146,61.12 C606.519333,61.12 606.002333,61.3393333 605.595,61.778 C605.187667,62.2166667 604.984,62.7493333 604.984,63.376 L604.984,63.376 L604.984,107.838 C604.984,108.464667 605.187667,108.981667 605.595,109.389 C606.002333,109.796333 606.519333,110 607.146,110 L607.146,110 L611.376,110 Z" id="path-1"></path>
        <path d="M19.0279134,5.9703157 C40.0186089,1.99010523 61.0093045,0 82,0 C102.990695,0 123.981391,1.99010522 144.972086,5.97031566 L144.972086,5.97031554 C151.594348,7.22601454 156.773985,12.4056517 158.029684,19.0279134 C162.009895,40.0186089 164,61.0093045 164,82 C164,102.990695 162.009895,123.981391 158.029684,144.972086 L158.029684,144.972086 C156.773985,151.594348 151.594348,156.773985 144.972087,158.029684 C123.981391,162.009895 102.990696,164 82,164 C61.0093045,164 40.0186091,162.009895 19.0279136,158.029684 L19.0279136,158.029684 C12.4056519,156.773985 7.2260147,151.594348 5.9703157,144.972087 C1.99010523,123.981391 0,102.990696 0,82 C0,61.0093045 1.99010522,40.0186091 5.97031566,19.0279136 L5.97031554,19.0279136 C7.22601454,12.4056519 12.4056517,7.2260147 19.0279134,5.9703157 Z" id="path-2"></path>
        <path d="M19.0279134,5.9703157 C40.0186089,1.99010523 61.0093045,0 82,0 C102.990695,0 123.981391,1.99010522 144.972086,5.97031566 L144.972086,5.97031554 C151.594348,7.22601454 156.773985,12.4056517 158.029684,19.0279134 C162.009895,40.0186089 164,61.0093045 164,82 C164,102.990695 162.009895,123.981391 158.029684,144.972086 L158.029684,144.972086 C156.773985,151.594348 151.594348,156.773985 144.972087,158.029684 C123.981391,162.009895 102.990696,164 82,164 C61.0093045,164 40.0186091,162.009895 19.0279136,158.029684 L19.0279136,158.029684 C12.4056519,156.773985 7.2260147,151.594348 5.9703157,144.972087 C1.99010523,123.981391 0,102.990696 0,82 C0,61.0093045 1.99010522,40.0186091 5.97031566,19.0279136 L5.97031554,19.0279136 C7.22601454,12.4056519 12.4056517,7.2260147 19.0279134,5.9703157 Z" id="path-4"></path>
    </defs>
    <g id="Page-1" stroke="none" stroke-width="1" fill="none" fill-rule="evenodd">
        <g id="logo-squircular">
            <g id="Squircular" fill-rule="nonzero">
                <use fill="#000000" xlink:href="#path-1"></use>
                <use fill="#26202E" xlink:href="#path-1"></use>
            </g>
            <g id="Group-2">
                <g id="Mask" fill="#431880" fill-rule="nonzero">
                    <path d="M19.0279134,5.9703157 C40.0186089,1.99010523 61.0093045,0 82,0 C102.990695,0 123.981391,1.99010522 144.972086,5.97031566 L144.972086,5.97031554 C151.594348,7.22601454 156.773985,12.4056517 158.029684,19.0279134 C162.009895,40.0186089 164,61.0093045 164,82 C164,102.990695 162.009895,123.981391 158.029684,144.972086 L158.029684,144.972086 C156.773985,151.594348 151.594348,156.773985 144.972087,158.029684 C123.981391,162.009895 102.990696,164 82,164 C61.0093045,164 40.0186091,162.009895 19.0279136,158.029684 L19.0279136,158.029684 C12.4056519,156.773985 7.2260147,151.594348 5.9703157,144.972087 C1.99010523,123.981391 0,102.990696 0,82 C0,61.0093045 1.99010522,40.0186091 5.97031566,19.0279136 L5.97031554,19.0279136 C7.22601454,12.4056519 12.4056517,7.2260147 19.0279134,5.9703157 Z" id="path-1"></path>
                </g>
                <g id="Rectangle-Clipped">
                    <mask id="mask-3" fill="white">
                        <use xlink:href="#path-2"></use>
                    </mask>
                    <g id="path-1"></g>
                    <path d="M-25.0410907,36.2808167 C-2.36072712,32.0936056 20.3196364,30 43,30 C64.8403503,30 86.6807005,31.9413956 108.521051,35.8241868 L111.041091,36.2808172 C119.519832,37.8461483 126.153852,44.4801684 127.719183,52.9589093 C131.906394,75.6392729 134,98.3196364 134,121 C134,142.84035 132.058604,164.680701 128.175813,186.521051 L127.719183,189.041091 C126.153852,197.519832 119.519832,204.153852 111.041091,205.719183 C88.3607271,209.906394 65.6803636,212 43,212 C21.1596497,212 -0.680700509,210.058604 -22.5210508,206.175813 L-25.0410911,205.719183 C-33.519832,204.153852 -40.1538522,197.519832 -41.7191833,189.041091 C-45.9063944,166.360727 -48,143.680364 -48,121 C-48,99.1596497 -46.0586044,77.3192995 -42.1758132,55.4789492 L-41.7191828,52.9589089 C-40.1538517,44.480168 -33.5198316,37.8461478 -25.0410907,36.2808167 Z" id="Rectangle" stroke="#C7A7F1" stroke-width="6.50847458" fill-opacity="0.2" fill="#C7A7F1" fill-rule="nonzero" mask="url(#mask-3)"></path>
                </g>
                <g id="Group-Clipped">
                    <mask id="mask-5" fill="white">
                        <use xlink:href="#path-4"></use>
                    </mask>
                    <g id="path-1"></g>
                    <g id="Group" mask="url(#mask-5)">
                        <g transform="translate(29.000000, 16.000000)" id="Rectangle">
                            <path d="M13.3430881,0.749675171 C9.22302572,0.82742682 6.21108433,2.06808509 4.13958471,4.13958471 C2.02436795,6.25480148 0.74468626,9.34849427 0.749675171,14.1823356 C0.82742682,18.302398 2.06808509,21.3143394 4.13958471,23.385839 C6.25480148,25.5010558 9.34849427,26.7807375 14.1823356,26.7757485 C18.302398,26.6979969 21.3143394,25.4573386 23.385839,23.385839 C25.5010558,21.2706223 26.7807375,18.1769295 26.7757485,13.3430881 C26.6979969,9.22302572 25.4573386,6.21108433 23.385839,4.13958471 C21.2706223,2.02436795 18.1769295,0.74468626 13.3430881,0.749675171 Z" id="Path" stroke="#C7A7F1" stroke-width="6.50847458" fill="#431880" fill-rule="nonzero"></path>
                            <path d="M68.665122,4.00391246 C64.5450596,4.0816641 61.5331182,5.32232238 59.4616186,7.393822 C57.3464018,9.50903877 56.0667202,12.6027316 56.0717091,17.4365729 C56.1494607,21.5566353 57.390119,24.5685767 59.4616186,26.6400763 C61.5768354,28.7552931 64.6705282,30.0349748 69.5043695,30.0299858 C73.6244319,29.9522342 76.6363733,28.7115759 78.7078729,26.6400763 C80.8230897,24.5248595 82.1027714,21.4311667 82.0977824,16.5973254 C82.0200308,12.477263 80.7793725,9.46532162 78.7078729,7.393822 C76.5926561,5.27860523 73.4989634,3.99892355 68.665122,4.00391246 Z" id="Path" stroke="#C7A7F1" stroke-width="6.50847458" fill="#431880" fill-rule="nonzero"></path>
                            <path d="M101.207495,39.8005226 C97.0874325,39.8782743 94.0754911,41.1189325 92.0039915,43.1904322 C89.8887747,45.3056489 88.609093,48.3993417 88.614082,53.233183 C88.6918336,57.3532455 89.9324919,60.3651869 92.0039915,62.4366865 C94.1192083,64.5519032 97.212901,65.8315849 102.046742,65.826596 C106.166805,65.7488444 109.178746,64.5081861 111.250246,62.4366865 C113.365463,60.3214697 114.645144,57.2277769 114.640156,52.3939356 C114.562404,48.2738732 113.321745,45.2619318 111.250246,43.1904322 C109.135029,41.0752154 106.041336,39.7955337 101.207495,39.8005226 Z" id="Path" stroke="#C7A7F1" stroke-width="6.50847458" fill="#431880" fill-rule="nonzero"></path>
                            <path d="M104.461732,91.8683193 C100.34167,91.9460709 97.3297284,93.1867292 95.2582288,95.2582288 C93.143012,97.3734455 91.8633303,100.467138 91.8683193,105.30098 C91.9460709,109.421042 93.1867292,112.432983 95.2582288,114.504483 C97.3734455,116.6197 100.467138,117.899382 105.30098,117.894393 C109.421042,117.816641 112.432983,116.575983 114.504483,114.504483 C116.6197,112.389266 117.899382,109.295574 117.894393,104.461732 C117.816641,100.34167 116.575983,97.3297284 114.504483,95.2582288 C112.389266,93.143012 109.295574,91.8633303 104.461732,91.8683193 Z" id="Path" stroke="#C7A7F1" stroke-width="6.50847458" fill="#431880" fill-rule="nonzero"></path>
                        </g>
                    </g>
                </g>
            </g>
        </g>
    </g>
</svg>