<?xml version="1.0" encoding="UTF-8"?>
<svg width="635px" height="164px" viewBox="0 0 635 164" version="1.1" xmlns="http://www.w3.org/2000/svg" xmlns:xlink="http://www.w3.org/1999/xlink">
    <title>logo-squircular</title>
    <defs>
        <path d="M19.0279134,5.9703157 C40.0186089,1.99010523 61.0093045,0 82,0 C102.990695,0 123.981391,1.99010522 144.972086,5.97031566 L144.972086,5.97031554 C151.594348,7.22601454 156.773985,12.4056517 158.029684,19.0279134 C162.009895,40.0186089 164,61.0093045 164,82 C164,102.990695 162.009895,123.981391 158.029684,144.972086 L158.029684,144.972086 C156.773985,151.594348 151.594348,156.773985 144.972087,158.029684 C123.981391,162.009895 102.990696,164 82,164 C61.0093045,164 40.0186091,162.009895 19.0279136,158.029684 L19.0279136,158.029684 C12.4056519,156.773985 7.2260147,151.594348 5.9703157,144.972087 C1.99010523,123.981391 0,102.990696 0,82 C0,61.0093045 1.99010522,40.0186091 5.97031566,19.0279136 L5.97031554,19.0279136 C7.22601454,12.4056519 12.4056517,7.2260147 19.0279134,5.9703157 Z" id="path-1"></path>
    </defs>
    <g id="logo-squircular" stroke="none" stroke-width="1" fill="none" fill-rule="evenodd">
        <text id="Squircular" font-family="Rubik-Regular, Rubik" font-size="94" font-weight="normal" fill="#26202E">
            <tspan x="188" y="114">Squircular</tspan>
        </text>
        <g id="Group-2" transform="translate(0.000000, 4.000000)">
            <mask id="mask-2" fill="white">
                <use xlink:href="#path-1"></use>
            </mask>
            <use id="Mask" fill="#431880" xlink:href="#path-1"></use>
            <path d="M-25.0410907,36.2808167 C-2.36072712,32.0936056 20.3196364,30 43,30 C64.8403503,30 86.6807005,31.9413956 108.521051,35.8241868 L111.041091,36.2808172 C119.519832,37.8461483 126.153852,44.4801684 127.719183,52.9589093 C131.906394,75.6392729 134,98.3196364 134,121 C134,142.84035 132.058604,164.680701 128.175813,186.521051 L127.719183,189.041091 C126.153852,197.519832 119.519832,204.153852 111.041091,205.719183 C88.3607271,209.906394 65.6803636,212 43,212 C21.1596497,212 -0.680700509,210.058604 -22.5210508,206.175813 L-25.0410911,205.719183 C-33.519832,204.153852 -40.1538522,197.519832 -41.7191833,189.041091 C-45.9063944,166.360727 -48,143.680364 -48,121 C-48,99.1596497 -46.0586044,77.3192995 -42.1758132,55.4789492 L-41.7191828,52.9589089 C-40.1538517,44.480168 -33.5198316,37.8461478 -25.0410907,36.2808167 Z" id="Rectangle" stroke="#C7A7F1" stroke-width="6.50847458" fill-opacity="0.2" fill="#C7A7F1" mask="url(#mask-2)"></path>
            <g id="Group" mask="url(#mask-2)" fill="#431880" stroke="#C7A7F1" stroke-width="6.50847458">
                <g transform="translate(33.000000, 20.000000)" id="Rectangle">
                    <path d="M9.34308815,-3.25031021 C5.22302572,-3.17257318 2.21108433,-1.93191491 0.139584712,0.139584712 C-1.97563205,2.25480148 -3.25531374,5.34849427 -3.25031021,10.1823356 C-3.17257318,14.302398 -1.93191491,17.3143394 0.139584712,19.385839 C2.25480148,21.5010558 5.34849427,22.7807375 10.1823356,22.7757339 C14.302398,22.6979969 17.3143394,21.4573386 19.385839,19.385839 C21.5010558,17.2706223 22.7807375,14.1769295 22.7757339,9.34308815 C22.6979969,5.22302572 21.4573386,2.21108433 19.385839,0.139584712 C17.2706223,-1.97563205 14.1769295,-3.25531374 9.34308815,-3.25031021 Z"></path>
                    <path d="M64.665122,0.00392707806 C60.5450596,0.081664105 57.5331182,1.32232238 55.4616186,3.393822 C53.3464018,5.50903877 52.0667202,8.60273156 52.0717237,13.4365729 C52.1494607,17.5566353 53.390119,20.5685767 55.4616186,22.6400763 C57.5768354,24.7552931 60.6705282,26.0349748 65.5043695,26.0299712 C69.6244319,25.9522342 72.6363733,24.7115759 74.7078729,22.6400763 C76.8230897,20.5248595 78.1027714,17.4311667 78.0977678,12.5973254 C78.0200308,8.47726301 76.7793725,5.46532162 74.7078729,3.393822 C72.5926561,1.27860523 69.4989634,-0.00107644884 64.665122,0.00392707806 Z"></path>
                    <path d="M97.2074949,35.8005372 C93.0874325,35.8782743 90.0754911,37.1189325 88.0039915,39.1904322 C85.8887747,41.3056489 84.609093,44.3993417 84.6140966,49.233183 C84.6918336,53.3532455 85.9324919,56.3651869 88.0039915,58.4366865 C90.1192083,60.5519032 93.212901,61.8315849 98.0467424,61.8265814 C102.166805,61.7488444 105.178746,60.5081861 107.250246,58.4366865 C109.365463,56.3214697 110.645144,53.2277769 110.640141,48.3939356 C110.562404,44.2738732 109.321745,41.2619318 107.250246,39.1904322 C105.135029,37.0752154 102.041336,35.7955337 97.2074949,35.8005372 Z"></path>
                    <path d="M100.461732,87.8683339 C96.3416698,87.9460709 93.3297284,89.1867292 91.2582288,91.2582288 C89.143012,93.3734455 87.8633303,96.4671383 87.8683339,101.30098 C87.9460709,105.421042 89.1867292,108.432983 91.2582288,110.504483 C93.3734455,112.6197 96.4671383,113.899382 101.30098,113.894378 C105.421042,113.816641 108.432983,112.575983 110.504483,110.504483 C112.6197,108.389266 113.899382,105.295574 113.894378,100.461732 C113.816641,96.3416698 112.575983,93.3297284 110.504483,91.2582288 C108.389266,89.143012 105.295574,87.8633303 100.461732,87.8683339 Z"></path>
                </g>
            </g>
        </g>
    </g>
</svg>