<?xml version="1.0" encoding="UTF-8"?>
<svg width="539px" height="164px" viewBox="0 0 539 164" version="1.1" xmlns="http://www.w3.org/2000/svg" xmlns:xlink="http://www.w3.org/1999/xlink">
    <title>Logo</title>
    <g id="Logo" stroke="none" stroke-width="1" fill="none" fill-rule="evenodd">
        <path d="M19.0279134,5.9703157 C40.0186089,1.99010523 61.0093045,0 82,0 C102.990695,0 123.981391,1.99010522 144.972086,5.97031566 L144.972086,5.97031554 C151.594348,7.22601454 156.773985,12.4056517 158.029684,19.0279134 C162.009895,40.0186089 164,61.0093045 164,82 C164,102.990695 162.009895,123.981391 158.029684,144.972086 L158.029684,144.972086 C156.773985,151.594348 151.594348,156.773985 144.972087,158.029684 C123.981391,162.009895 102.990696,164 82,164 C61.0093045,164 40.0186091,162.009895 19.0279136,158.029684 L19.0279136,158.029684 C12.4056519,156.773985 7.2260147,151.594348 5.9703157,144.972087 C1.99010523,123.981391 0,102.990696 0,82 C0,61.0093045 1.99010522,40.0186091 5.97031566,19.0279136 L5.97031554,19.0279136 C7.22601454,12.4056519 12.4056517,7.2260147 19.0279134,5.9703157 Z" id="Rectangle" fill="#431880"></path>
        <text id="Squirkly" font-family="Rubik-Regular, Rubik" font-size="94" font-weight="normal" fill="#26202E">
            <tspan x="188" y="114">Squirkly</tspan>
        </text>
        <path d="M17,82 C17,60.6666667 22.3333333,44.6666667 33,34 C43.2716049,23.7283951 58.4887974,18.4023777 78.6515775,18.0219479 L81,18 C102.333333,18 118.333333,23.3333333 129,34 C139.271605,44.2716049 144.597622,59.4887974 144.978052,79.6515775 L145,82 C145,103.333333 139.666667,119.333333 129,130 C118.728395,140.271605 103.511203,145.597622 83.3484225,145.978052 L81,146 C59.6666667,146 43.6666667,140.666667 33,130 C22.7283951,119.728395 17.4023777,104.511203 17.0219479,84.3484225 L17,82 Z" id="Rectangle" fill="#C7A7F1"></path>
        <text id="S" font-family="Rubik-Medium, Rubik" font-size="96" font-weight="400" fill="#431880">
            <tspan x="50.636" y="116">S</tspan>
        </text>
    </g>
</svg>