<svg height="164" viewBox="0 0 634 164" width="634" xmlns="http://www.w3.org/2000/svg" xmlns:xlink="http://www.w3.org/1999/xlink"><mask id="a" fill="#fff"><path d="m19.0279134 5.9703157c20.9906955-3.98021047 41.9813911-5.9703157 62.9720866-5.9703157 20.990695 0 41.981391 1.99010522 62.972086 5.97031566v-.00000012c6.622262 1.255699 11.801899 6.43533616 13.057598 13.05759786 3.980211 20.9906955 5.970316 41.9813911 5.970316 62.9720866 0 20.990695-1.990105 41.981391-5.970316 62.972086-1.255699 6.622262-6.435336 11.801899-13.057597 13.057598-20.990696 3.980211-41.981391 5.970316-62.972087 5.970316-20.9906955 0-41.9813909-1.990105-62.9720864-5.970316-6.6222617-1.255699-11.8018989-6.435336-13.0575979-13.057597-3.98021047-20.990696-5.9703157-41.981391-5.9703157-62.972087 0-20.9906955 1.99010522-41.9813909 5.97031566-62.9720864h-.00000012c1.255699-6.6222617 6.43533616-11.8018989 13.05759786-13.0575979z" fill="#fff" fill-rule="evenodd"/></mask><mask id="b" fill="#fff"><path d="m19.0279134 5.9703157c20.9906955-3.98021047 41.9813911-5.9703157 62.9720866-5.9703157 20.990695 0 41.981391 1.99010522 62.972086 5.97031566v-.00000012c6.622262 1.255699 11.801899 6.43533616 13.057598 13.05759786 3.980211 20.9906955 5.970316 41.9813911 5.970316 62.9720866 0 20.990695-1.990105 41.981391-5.970316 62.972086-1.255699 6.622262-6.435336 11.801899-13.057597 13.057598-20.990696 3.980211-41.981391 5.970316-62.972087 5.970316-20.9906955 0-41.9813909-1.990105-62.9720864-5.970316-6.6222617-1.255699-11.8018989-6.435336-13.0575979-13.057597-3.98021047-20.990696-5.9703157-41.981391-5.9703157-62.972087 0-20.9906955 1.99010522-41.9813909 5.97031566-62.9720864h-.00000012c1.255699-6.6222617 6.43533616-11.8018989 13.05759786-13.0575979z" fill="#fff" fill-rule="evenodd"/></mask><g fill="none" fill-rule="evenodd"><path d="m19.0279134 5.9703157c20.9906955-3.98021047 41.9813911-5.9703157 62.9720866-5.9703157 20.990695 0 41.981391 1.99010522 62.972086 5.97031566v-.00000012c6.622262 1.255699 11.801899 6.43533616 13.057598 13.05759786 3.980211 20.9906955 5.970316 41.9813911 5.970316 62.9720866 0 20.990695-1.990105 41.981391-5.970316 62.972086-1.255699 6.622262-6.435336 11.801899-13.057597 13.057598-20.990696 3.980211-41.981391 5.970316-62.972087 5.970316-20.9906955 0-41.9813909-1.990105-62.9720864-5.970316-6.6222617-1.255699-11.8018989-6.435336-13.0575979-13.057597-3.98021047-20.990696-5.9703157-41.981391-5.9703157-62.972087 0-20.9906955 1.99010522-41.9813909 5.97031566-62.9720864h-.00000012c1.255699-6.6222617 6.43533616-11.8018989 13.05759786-13.0575979z" fill="#431880" fill-rule="nonzero"/><path d="m-25.0410907 36.2808167c22.68036358-4.1872111 45.3607271-6.2808167 68.0410907-6.2808167 21.8403503 0 43.6807005 1.9413956 65.521051 5.8241868l2.52004.4566304c8.478741 1.5653311 15.112761 8.1993512 16.678092 16.6780921 4.187211 22.6803636 6.280817 45.3607271 6.280817 68.0410907 0 21.84035-1.941396 43.680701-5.824187 65.521051l-.45663 2.52004c-1.565331 8.478741-8.199351 15.112761-16.678092 16.678092-22.6803639 4.187211-45.3607274 6.280817-68.041091 6.280817-21.8403503 0-43.68070051-1.941396-65.5210508-5.824187l-2.5200403-.45663c-8.4787409-1.565331-15.1127611-8.199351-16.6780922-16.678092-4.1872111-22.680364-6.2808167-45.360727-6.2808167-68.041091 0-21.8403503 1.9413956-43.6807005 5.8241868-65.5210508l.4566304-2.5200403c1.5653311-8.4787409 8.1993512-15.1127611 16.6780921-16.6780922z" style="stroke:#c7a7f1;stroke-width:6.508475;fill-opacity:.2;fill:#c7a7f1;fill-rule:nonzero;mask:url(#a)"/><g mask="url(#b)"><g fill="#431880" fill-rule="nonzero" stroke="#c7a7f1" stroke-width="6.508475" transform="translate(29 16)"><path d="m13.3430881.74967517c-4.12006238.07775165-7.13200377 1.31840992-9.20350339 3.38990954-2.11521676 2.11521677-3.39489845 5.20890956-3.38990954 10.04275089.07775165 4.1200624 1.31840992 7.1320038 3.38990954 9.2035034 2.11521677 2.1152168 5.20890956 3.3948985 10.04275089 3.3899095 4.1200624-.0777516 7.1320038-1.3184099 9.2035034-3.3899095 2.1152168-2.1152167 3.3948985-5.2089095 3.3899095-10.0427509-.0777516-4.12006238-1.3184099-7.13200377-3.3899095-9.20350339-2.1152167-2.11521676-5.2089095-3.39489845-10.0427509-3.38990954z"/><path d="m68.665122 4.00391246c-4.1200624.07775164-7.1320038 1.31840992-9.2035034 3.38990954-2.1152168 2.11521677-3.3948984 5.2089096-3.3899095 10.0427509.0777516 4.1200624 1.3184099 7.1320038 3.3899095 9.2035034 2.1152168 2.1152168 5.2089096 3.3948985 10.0427509 3.3899095 4.1200624-.0777516 7.1320038-1.3184099 9.2035034-3.3899095 2.1152168-2.1152168 3.3948985-5.2089096 3.3899095-10.0427509-.0777516-4.1200624-1.3184099-7.13200378-3.3899095-9.2035034-2.1152168-2.11521677-5.2089095-3.39489845-10.0427509-3.38990954z"/><path d="m101.207495 39.8005226c-4.1200625.0777517-7.1320039 1.3184099-9.2035035 3.3899096-2.1152168 2.1152167-3.3948985 5.2089095-3.3899095 10.0427508.0777516 4.1200625 1.3184099 7.1320039 3.3899095 9.2035035 2.1152168 2.1152167 5.2089095 3.3948984 10.0427505 3.3899095 4.120063-.0777516 7.132004-1.3184099 9.203504-3.3899095 2.115217-2.1152168 3.394898-5.2089096 3.38991-10.0427509-.077752-4.1200624-1.318411-7.1320038-3.38991-9.2035034-2.115217-2.1152168-5.20891-3.3948985-10.042751-3.3899096z"/><path d="m104.461732 91.8683193c-4.120062.0777516-7.1320036 1.3184099-9.2035032 3.3899095-2.1152168 2.1152167-3.3948985 5.2089092-3.3899095 10.0427512.0777516 4.120062 1.3184099 7.132003 3.3899095 9.203503 2.1152167 2.115217 5.2089092 3.394899 10.0427512 3.38991 4.120062-.077752 7.132003-1.31841 9.203503-3.38991 2.115217-2.115217 3.394899-5.208909 3.38991-10.042751-.077752-4.120062-1.31841-7.1320036-3.38991-9.2035032-2.115217-2.1152168-5.208909-3.3948985-10.042751-3.3899095z"/></g></g></g></svg>